<svg width="100" height="100" xmlns="http://www.w3.org/2000/svg" t="1700665902329" class="icon" version="1.1" p-id="4408">
 <g id="Layer_1">
  <title>Layer 1</title>
  <g id="svg_6">
   <g stroke="null">
    <path stroke="null" d="m75.02271,31.05124c-0.2131,0 -0.90569,-0.20516 -1.1188,-0.20516c-7.9914,-7.02674 -18.43349,-9.18092 -22.6423,-9.18092c-4.2088,0.20516 -10.22899,2.5645 -12.67969,6.41126c-3.30311,0.87193 -7.9914,1.69257 -10.01589,4.71868c-1.75811,2.76966 4.42191,4.51352 6.4464,5.129c0.90569,0.20516 5.1145,1.28225 10.44209,3.43643l0.2131,0.20516l0,0.20516c-0.2131,0.87193 -0.2131,2.15418 0.42621,4.92384c2.02449,5.53932 5.1145,9.38608 6.8726,8.97576c1.3319,-0.41032 1.1188,-6.82158 1.75811,-8.97576c0,0 0.2131,-0.20516 0.42621,-0.20516l0.42621,0c7.9914,4.92384 14.22469,12.61735 16.40901,22.20859c2.6638,10.66833 -0.2131,21.59311 -6.4464,29.90209c1.1188,-0.20516 1.75811,-0.61548 3.30311,-1.69257c2.4507,-1.69257 4.68829,-4.05191 6.4464,-6.41126c12.89279,-17.54119 14.22469,-34.21046 7.35209,-48.52038c0,-0.20516 -0.2131,-0.20516 -0.2131,-0.41032c-0.2131,-1.94902 7.77829,-2.35934 9.74951,-3.43643c1.27862,-1.94902 -11.82727,-7.69351 -17.15487,-7.07802z" fill="#FF6A00" p-id="4817"/>
    <path stroke="null" d="m62.34302,75.31454l5.75381,-8.97576c-0.63931,-1.28225 -1.1188,-2.5645 -1.75811,-3.64159l-5.96691,9.18092l-11.56089,0l6.6595,10.46317l-7.77829,11.95058l-15.50331,0l-7.77829,-12.15574l6.6595,-10.46317l-11.56089,0l-7.77829,-12.15574l7.77829,-12.20703l15.55659,0l4.63501,7.48835l3.09001,-4.71868c-0.2131,-0.20516 -0.2131,-0.61548 -0.42621,-0.87193c-0.42621,-1.69257 -0.63931,-2.97482 -0.63931,-4.05191l-2.02449,2.97482l-2.6638,-4.25707l-19.28591,0l-10.01589,15.84862l10.01589,15.59217l7.08571,0l-4.42191,7.07802l9.96261,15.59217l19.55229,0l10.01589,-15.59217l-4.42191,-7.07802l6.81933,0l0,0z" fill="#FF6A00" p-id="4818"/>
   </g>
   <g stroke="null">
    <path stroke="null" d="m8.37834,6.15735l6.48728,0l0,1.4179l-6.48728,0l0,-1.4179z" fill="#FF6900" p-id="4836"/>
    <path stroke="null" d="m18.07895,1.01746l-4.30464,0l1.03069,1.4179l3.1527,0.94527c0.60629,0.17724 0.97006,0.70895 0.97006,1.24066l0,4.54909c0,0.59079 -0.36377,1.06342 -0.97006,1.24066l-3.1527,0.94527l-0.97006,1.47698l4.30464,0c1.81886,0 3.21333,-1.4179 3.21333,-3.13119l0,-5.55344c0,-1.7133 -1.45509,-3.13119 -3.27395,-3.13119l0,0zm-12.8533,9.45266c-0.60629,-0.17724 -0.97006,-0.70895 -0.97006,-1.24066l0,-4.60817c0,-0.59079 0.36377,-1.06342 0.97006,-1.24066l3.1527,-0.94527l1.03069,-1.4179l-4.30464,0c-1.75823,0 -3.21333,1.4179 -3.21333,3.13119l0,5.49436c0,1.77237 1.45509,3.13119 3.21333,3.13119l4.30464,0l-1.03069,-1.4179l-3.1527,-0.88619zm66.69166,-8.98003c-1.87949,0 -3.39521,1.47698 -3.39521,3.24935l0,4.54909c0,1.77237 1.51572,3.24935 3.39521,3.24935c1.87949,0 3.39521,-1.47698 3.39521,-3.24935l0,-0.05908l-1.45509,0l0,0.05908c0,1.00435 -0.8488,1.83145 -1.94012,1.83145c-1.03069,0 -1.94012,-0.82711 -1.94012,-1.83145l0,-4.54909c0,-1.00435 0.8488,-1.83145 1.94012,-1.83145c1.03069,0 1.94012,0.82711 1.94012,1.83145l0,0.05908l1.45509,0l0,-0.05908c0,-1.77237 -1.51572,-3.24935 -3.39521,-3.24935zm9.51872,2.89488c-1.57635,0 -2.84955,1.18158 -2.91018,2.65856l0,2.8358c0.06063,1.47698 1.33383,2.65856 2.91018,2.65856c1.57635,0 2.84955,-1.18158 2.91018,-2.65856l0,-2.77672c-0.06063,-1.53606 -1.33383,-2.71764 -2.91018,-2.71764l0,0zm1.45509,5.31712c0,0.76803 -0.66692,1.4179 -1.45509,1.4179c-0.78817,0 -1.45509,-0.59079 -1.45509,-1.4179l0,-2.42225c0,-0.76803 0.66692,-1.4179 1.45509,-1.4179c0.78817,0 1.45509,0.64987 1.45509,1.4179l0,2.42225zm-6.85105,-8.212l1.45509,0l0,10.87056l-1.45509,0l0,-10.87056zm-40.37877,2.89488l1.45509,0l0,7.91661l-1.45509,0l0,-7.91661zm-2.91018,-2.89488l1.45509,0l0,10.87056l-1.45509,0l0,-10.87056zm-3.69836,0l-1.81886,0l-2.97081,10.87056l1.45509,0l0.78817,-2.89488l3.21333,0l0.78817,2.8358l1.45509,0l-2.91018,-10.81148l0,0zm-2.18264,6.55779l1.21258,-4.49002l1.21258,4.49002l-2.42515,0zm62.93267,1.77237c0,0.76803 -0.66692,1.4179 -1.45509,1.4179c-0.78817,0 -1.45509,-0.64987 -1.45509,-1.4179l0,-5.43528l-1.45509,0l0,5.6716c0,1.35882 1.15195,2.48132 2.54641,2.48132c0.24252,0 0.48503,-0.05908 0.72755,-0.11816c0.12126,-0.05908 0.30314,-0.11816 0.4244,-0.17724c0.24252,-0.11816 0.4244,-0.23632 0.60629,-0.41355l0.06063,-0.05908l0,0.59079l1.45509,0l0,-7.97569l-1.45509,0l0,5.43528l0,0zm-54.1415,-8.33016l1.45509,0l0,1.4179l-1.45509,0l0,-1.4179zm6.18413,2.89488c-0.66692,0 -1.2732,0.23632 -1.75823,0.70895l-0.06063,0.05908l0,-3.66291l-1.45509,0l0,10.87056l1.45509,0l0,-0.59079l0.06063,0.05908c0.48503,0.47263 1.09132,0.70895 1.75823,0.70895c1.39446,0 2.54641,-1.1225 2.54641,-2.48132l0,-3.19027c0,-1.35882 -1.15195,-2.48132 -2.54641,-2.48132l0,0zm1.09132,5.43528c0,0.76803 -0.66692,1.4179 -1.45509,1.4179s-1.45509,-0.64987 -1.45509,-1.4179l0,-2.71764c0,-0.76803 0.66692,-1.4179 1.45509,-1.4179s1.45509,0.64987 1.45509,1.4179l0,2.71764zm12.61079,-5.43528c-0.66692,0 -1.2732,0.23632 -1.75823,0.70895l-0.12126,0.05908l0,-3.66291l-1.45509,0l0,10.87056l1.45509,0l0,-0.59079l0.06063,0.05908c0.48503,0.47263 1.09132,0.70895 1.75823,0.70895c1.39446,0 2.54641,-1.1225 2.54641,-2.48132l0,-3.19027c0,-1.35882 -1.15195,-2.48132 -2.48578,-2.48132l0,0zm1.03069,5.43528c0,0.76803 -0.66692,1.4179 -1.45509,1.4179c-0.78817,0 -1.45509,-0.64987 -1.45509,-1.4179l0,-2.71764c0,-0.76803 0.66692,-1.4179 1.45509,-1.4179c0.78817,0 1.45509,0.64987 1.45509,1.4179l0,2.71764zm40.07562,-8.33016l0,3.66291l-0.06063,-0.05908c-0.48503,-0.47263 -1.09132,-0.70895 -1.75823,-0.70895c-1.39446,0 -2.54641,1.1225 -2.54641,2.48132l0,3.19027c0,1.35882 1.15195,2.42225 2.54641,2.42225c0.66692,0 1.2732,-0.23632 1.75823,-0.70895l0.06063,-0.05908l0,0.59079l1.45509,0l0,-10.81148l-1.45509,0l0,0zm0,8.33016c0,0.76803 -0.66692,1.4179 -1.45509,1.4179c-0.78817,0 -1.45509,-0.64987 -1.45509,-1.4179l0,-2.71764c0,-0.76803 0.66692,-1.4179 1.45509,-1.4179c0.78817,0 1.45509,0.64987 1.45509,1.4179l0,2.71764zm-45.53222,-3.07212c-0.06063,-0.41355 -0.24252,-0.82711 -0.48503,-1.18158c-0.54566,-0.70895 -1.33383,-1.1225 -2.18264,-1.18158l-0.18189,0c-0.66692,0 -1.33383,0.23632 -1.87949,0.64987c-0.54566,0.41355 -0.8488,1.00435 -1.03069,1.65422l1.45509,0c0.12126,-0.64987 0.72755,-1.1225 1.39446,-1.1225c0.36377,0 0.72755,0.11816 1.03069,0.41355c0.24252,0.23632 0.4244,0.59079 0.4244,0.94527l0,0.64987l-2.06138,0c-1.39446,0 -2.54641,1.1225 -2.54641,2.48132c0,1.1225 0.78817,2.12685 1.87949,2.36317l0.06063,0c0.06063,0 0.12126,0 0.12126,0.05908l0.60629,0c0.36377,0 0.66692,-0.05908 0.90943,-0.11816c0.36377,-0.11816 0.72755,-0.2954 1.03069,-0.59079l0.06063,-0.05908l0,0.59079l1.45509,0l0,-5.25804c0,-0.05908 0,-0.11816 -0.06063,-0.2954l0,0zm-1.45509,2.95396c0,0.76803 -0.54566,1.4179 -1.33383,1.53606c-0.12126,0 -0.24252,0.05908 -0.30314,0.05908c-0.24252,0 -0.48503,-0.05908 -0.72755,-0.17724c-0.06063,-0.05908 -0.12126,-0.05908 -0.18189,-0.11816c-0.06063,-0.05908 -0.18189,-0.11816 -0.24252,-0.23632c-0.18189,-0.23632 -0.24252,-0.47263 -0.24252,-0.76803c0,-0.70895 0.60629,-1.29974 1.33383,-1.29974l1.75823,0l0,1.00435l-0.06063,0zm15.1572,-2.89488c-0.06063,-0.41355 -0.24252,-0.82711 -0.48503,-1.18158c-0.54566,-0.70895 -1.33383,-1.1225 -2.18264,-1.18158l-0.18189,0c-0.66692,0 -1.33383,0.23632 -1.87949,0.64987c-0.54566,0.41355 -0.8488,1.00435 -1.03069,1.65422l1.45509,0c0.12126,-0.64987 0.72755,-1.1225 1.39446,-1.1225c0.36377,0 0.72755,0.11816 1.03069,0.41355c0.24252,0.23632 0.4244,0.59079 0.4244,0.94527l0,0.64987l-2.06138,0c-1.39446,0 -2.54641,1.1225 -2.54641,2.48132c0,1.1225 0.78817,2.12685 1.87949,2.36317l0.06063,0c0.06063,0 0.12126,0 0.12126,0.05908l0.60629,0c0.36377,0 0.66692,-0.05908 0.90943,-0.11816c0.36377,-0.11816 0.72755,-0.2954 1.03069,-0.59079l0.06063,-0.05908l0,0.59079l1.45509,0l0,-5.25804c-0.06063,-0.11816 -0.06063,-0.17724 -0.06063,-0.2954l0,0zm-1.45509,2.89488c0,0.76803 -0.54566,1.4179 -1.33383,1.53606c-0.12126,0 -0.24252,0.05908 -0.30314,0.05908c-0.24252,0 -0.48503,-0.05908 -0.72755,-0.17724c-0.06063,-0.05908 -0.12126,-0.05908 -0.18189,-0.11816c-0.06063,-0.05908 -0.18189,-0.11816 -0.24252,-0.23632c-0.18189,-0.23632 -0.24252,-0.47263 -0.24252,-0.76803c0,-0.70895 0.60629,-1.29974 1.33383,-1.29974l1.75823,0l0,1.00435l-0.06063,0z" fill="#FF6900" p-id="4837"/>
   </g>
  </g>
 </g>

</svg>